<svg width="537" height="401" viewBox="0 0 537 401" fill="none" xmlns="http://www.w3.org/2000/svg"><g filter="url('#fancy-goo')"><path fill-rule="evenodd" clip-rule="evenodd" d="M336.722 52.4425C418.386 52.4425 484.588 118.644 484.588 200.309C484.588 281.973 418.386 348.175 336.722 348.175C255.058 348.175 188.856 281.973 188.856 200.309C188.856 118.644 255.058 52.4425 336.722 52.4425ZM336.722 0.308594C447.179 0.308594 536.722 89.8516 536.722 200.309C536.722 310.766 447.179 400.309 336.722 400.309C226.265 400.309 136.722 310.766 136.722 200.309C136.722 89.8516 226.265 0.308594 336.722 0.308594Z" /><path transform="translate(35 0)" fill-rule="evenodd" clip-rule="evenodd" d="M75.0208 48.0207C91.037 48.0207 104.021 61.0045 104.021 77.0207C104.021 93.037 91.037 106.021 75.0208 106.021C59.0045 106.021 46.0207 93.037 46.0207 77.0207C46.0207 61.0045 59.0045 48.0207 75.0208 48.0207ZM75.0208 2.02075C116.442 2.02075 150.021 35.5994 150.021 77.0207C150.021 118.442 116.442 152.021 75.0208 152.021C33.5994 152.021 0.020752 118.442 0.020752 77.0207C0.020752 35.5994 33.5994 2.02075 75.0208 2.02075Z" /></g><defs><filter id="fancy-goo"><feGaussianBlur in="SourceGraphic" stdDeviation="10" result="blur" /><feColorMatrix in="blur" mode="matrix" values="1 0 0 0 0 0 1 0 0 0 0 0 1 0 0 0 0 0 19 -9" result="goo" /><feComposite in="SourceGraphic" in2="goo" operator="atop" /></filter></defs><style>path{fill:#000} @media (prefers-color-scheme:dark){path{fill:#fff}} @keyframes rotateAnimation{ 0%{ transform: translate(470px, 500px) rotate(0deg) scale(-1.5)} 100%{ transform: translate(50px, 0) rotate(360deg);}} .small{ animation: rotateAnimation 3s infinite ease-out ; transform: translate(50px, 0);} </style></svg>