<svg xmlns="http://www.w3.org/2000/svg" width="300" height="300" viewBox="0 0 1172 1172" fill="none">
 <g filter="url('#fancy-goo')">
<path fill="black" fill-rule="evenodd" clip-rule="evenodd" d="M585.722 438.442C667.386 438.442 733.588 504.644 733.588 586.309C733.588 667.973 667.386 734.175 585.722 734.175C504.058 734.175 437.856 667.973 437.856 586.309C437.856 504.644 504.058 438.442 585.722 438.442ZM585.722 386.309C696.179 386.309 785.722 475.852 785.722 586.309C785.722 696.766 696.179 786.309 585.722 786.309C475.265 786.309 385.722 696.766 385.722 586.309C385.722 475.852 475.265 386.309 585.722 386.309Z"/>
<path fill="black" fill-rule="evenodd" clip-rule="evenodd" d="M324.021 434.021C340.037 434.021 353.021 447.004 353.021 463.021C353.021 479.037 340.037 492.021 324.021 492.021C308.004 492.021 295.021 479.037 295.021 463.021C295.021 447.004 308.004 434.021 324.021 434.021ZM324.021 388.021C365.442 388.021 399.021 421.599 399.021 463.021C399.021 504.442 365.442 538.021 324.021 538.021C282.599 538.021 249.021 504.442 249.021 463.021C249.021 421.599 282.599 388.021 324.021 388.021Z"/>
</g>
<defs>
    <filter id="fancy-goo">
      <feGaussianBlur in="SourceGraphic" stdDeviation="20" result="blur" />
      <feColorMatrix in="blur" mode="matrix" values="1 0 0 0 0  0 1 0 0 0  0 0 1 0 0  0 0 0 19 -9" result="goo" />
      <feComposite in="SourceGraphic" in2="goo" operator="atop" />
    </filter>
  </defs>
</svg>
  